<svg width="32" height="32" viewBox="0 0 32 32" fill="none" xmlns="http://www.w3.org/2000/svg">
<path d="M12.5 22.5C12.3974 23.6483 13.1697 24.4594 13.5 25.5L10 24.2L3.8 26.6C3.35556 26.7778 2.94444 26.7278 2.56667 26.45C2.18889 26.1722 2 25.8 2 25.3333V6.66667C2 6.37778 2.08333 6.12222 2.25 5.9C2.41667 5.67778 2.64444 5.51111 2.93333 5.4L10 3L18 5.8L24.2 3.4C24.6444 3.22222 25.0556 3.27222 25.4333 3.55C25.8111 3.82778 26 4.2 26 4.66667V13.753C25.0959 13.1223 24.6377 12.7146 23.3333 12.5L19.3333 12C18.1589 12.0671 17.6039 12.3453 16.6667 12.9303L12.5 22.5ZM16.6667 12.9303V8.13333L11.3333 6.26667V21.8667L12.5 22.5L16.6667 12.9303ZM23.3333 12.5V6.6L19.3333 8.13333V12L23.3333 12.5ZM4.66667 23.4L8.66667 21.8667V6.26667L4.66667 7.6V23.4Z" fill="#979AA0"/>
<path d="M29.4667 31.3333L24.3333 26.2C23.8 26.5778 23.2167 26.8611 22.5833 27.05C21.95 27.2389 21.3111 27.3333 20.6667 27.3333C18.8222 27.3333 17.25 26.6833 15.95 25.3833C14.65 24.0833 14 22.5111 14 20.6667C14 18.8222 14.65 17.25 15.95 15.95C17.25 14.65 18.8222 14 20.6667 14C22.5111 14 24.0833 14.65 25.3833 15.95C26.6833 17.25 27.3333 18.8222 27.3333 20.6667C27.3333 21.3111 27.2389 21.95 27.05 22.5833C26.8611 23.2167 26.5778 23.8 26.2 24.3333L31.3333 29.4667L29.4667 31.3333ZM20.6667 24.6667C21.7778 24.6667 22.7222 24.2778 23.5 23.5C24.2778 22.7222 24.6667 21.7778 24.6667 20.6667C24.6667 19.5556 24.2778 18.6111 23.5 17.8333C22.7222 17.0556 21.7778 16.6667 20.6667 16.6667C19.5556 16.6667 18.6111 17.0556 17.8333 17.8333C17.0556 18.6111 16.6667 19.5556 16.6667 20.6667C16.6667 21.7778 17.0556 22.7222 17.8333 23.5C18.6111 24.2778 19.5556 24.6667 20.6667 24.6667Z" fill="#979AA0"/>
</svg>
